<svg id="SvgjsSvg1006" width="1050" height="591" xmlns="http://www.w3.org/2000/svg" version="1.1" xmlns:xlink="http://www.w3.org/1999/xlink" xmlns:svgjs="http://svgjs.com/svgjs"><defs id="SvgjsDefs1007"><marker id="SvgjsMarker1102" markerWidth="16" markerHeight="12" refX="16" refY="6" viewBox="0 0 16 12" orient="auto" markerUnits="userSpaceOnUse"><path id="SvgjsPath1103" d="M0,2 L14,6 L0,11 L0,2" fill="#323232" stroke="#323232" stroke-width="2"></path></marker><marker id="SvgjsMarker1112" markerWidth="16" markerHeight="12" refX="16" refY="6" viewBox="0 0 16 12" orient="auto" markerUnits="userSpaceOnUse"><path id="SvgjsPath1113" d="M0,2 L14,6 L0,11 L0,2" fill="#323232" stroke="#323232" stroke-width="2"></path></marker><marker id="SvgjsMarker1116" markerWidth="16" markerHeight="12" refX="16" refY="6" viewBox="0 0 16 12" orient="auto" markerUnits="userSpaceOnUse"><path id="SvgjsPath1117" d="M0,2 L14,6 L0,11 L0,2" fill="#323232" stroke="#323232" stroke-width="2"></path></marker><marker id="SvgjsMarker1126" markerWidth="16" markerHeight="12" refX="16" refY="6" viewBox="0 0 16 12" orient="auto" markerUnits="userSpaceOnUse"><path id="SvgjsPath1127" d="M0,2 L14,6 L0,11 L0,2" fill="#323232" stroke="#323232" stroke-width="2"></path></marker><marker id="SvgjsMarker1130" markerWidth="16" markerHeight="12" refX="16" refY="6" viewBox="0 0 16 12" orient="auto" markerUnits="userSpaceOnUse"><path id="SvgjsPath1131" d="M0,2 L14,6 L0,11 L0,2" fill="#323232" stroke="#323232" stroke-width="2"></path></marker><marker id="SvgjsMarker1144" markerWidth="16" markerHeight="12" refX="16" refY="6" viewBox="0 0 16 12" orient="auto" markerUnits="userSpaceOnUse"><path id="SvgjsPath1145" d="M0,2 L14,6 L0,11 L0,2" fill="#323232" stroke="#323232" stroke-width="2"></path></marker><marker id="SvgjsMarker1154" markerWidth="16" markerHeight="12" refX="16" refY="6" viewBox="0 0 16 12" orient="auto" markerUnits="userSpaceOnUse"><path id="SvgjsPath1155" d="M0,2 L14,6 L0,11 L0,2" fill="#323232" stroke="#323232" stroke-width="2"></path></marker><marker id="SvgjsMarker1158" markerWidth="16" markerHeight="12" refX="16" refY="6" viewBox="0 0 16 12" orient="auto" markerUnits="userSpaceOnUse"><path id="SvgjsPath1159" d="M0,2 L14,6 L0,11 L0,2" fill="#323232" stroke="#323232" stroke-width="2"></path></marker><marker id="SvgjsMarker1162" markerWidth="16" markerHeight="12" refX="16" refY="6" viewBox="0 0 16 12" orient="auto" markerUnits="userSpaceOnUse"><path id="SvgjsPath1163" d="M0,2 L14,6 L0,11 L0,2" fill="#323232" stroke="#323232" stroke-width="2"></path></marker><marker id="SvgjsMarker1172" markerWidth="16" markerHeight="12" refX="16" refY="6" viewBox="0 0 16 12" orient="auto" markerUnits="userSpaceOnUse"><path id="SvgjsPath1173" d="M0,2 L14,6 L0,11 L0,2" fill="#323232" stroke="#323232" stroke-width="2"></path></marker><marker id="SvgjsMarker1182" markerWidth="16" markerHeight="12" refX="16" refY="6" viewBox="0 0 16 12" orient="auto" markerUnits="userSpaceOnUse"><path id="SvgjsPath1183" d="M0,2 L14,6 L0,11 L0,2" fill="#323232" stroke="#323232" stroke-width="2"></path></marker><marker id="SvgjsMarker1194" markerWidth="16" markerHeight="12" refX="16" refY="6" viewBox="0 0 16 12" orient="auto" markerUnits="userSpaceOnUse"><path id="SvgjsPath1195" d="M0,2 L14,6 L0,11 L0,2" fill="#323232" stroke="#323232" stroke-width="2"></path></marker><marker id="SvgjsMarker1204" markerWidth="16" markerHeight="12" refX="16" refY="6" viewBox="0 0 16 12" orient="auto" markerUnits="userSpaceOnUse"><path id="SvgjsPath1205" d="M0,2 L14,6 L0,11 L0,2" fill="#323232" stroke="#323232" stroke-width="2"></path></marker><marker id="SvgjsMarker1208" markerWidth="16" markerHeight="12" refX="16" refY="6" viewBox="0 0 16 12" orient="auto" markerUnits="userSpaceOnUse"><path id="SvgjsPath1209" d="M0,2 L14,6 L0,11 L0,2" fill="#323232" stroke="#323232" stroke-width="2"></path></marker><marker id="SvgjsMarker1212" markerWidth="20" markerHeight="12" refX="20" refY="6" viewBox="0 0 20 12" orient="auto" markerUnits="userSpaceOnUse"><path id="SvgjsPath1213" d="M2,6 L10,2 L18,6 L10,10L2,6" fill="#ffffff" stroke="#323232" stroke-width="2"></path></marker><marker id="SvgjsMarker1222" markerWidth="16" markerHeight="12" refX="16" refY="6" viewBox="0 0 16 12" orient="auto" markerUnits="userSpaceOnUse"><path id="SvgjsPath1223" d="M0,2 L14,6 L0,11 L0,2" fill="#323232" stroke="#323232" stroke-width="2"></path></marker><marker id="SvgjsMarker1226" markerWidth="20" markerHeight="12" refX="20" refY="6" viewBox="0 0 20 12" orient="auto" markerUnits="userSpaceOnUse"><path id="SvgjsPath1227" d="M2,6 L10,2 L18,6 L10,10L2,6" fill="#ffffff" stroke="#323232" stroke-width="2"></path></marker></defs><g id="SvgjsG1008" transform="translate(25,25)"><path id="SvgjsPath1009" d="M 0 0L 250 0L 250 540L 0 540Z" stroke="#323232" stroke-width="2" fill="none"></path><path id="SvgjsPath1010" d="M 0 0L 250 0L 250 40L 0 40Z" stroke="#323232" stroke-width="2" fill-opacity="1" fill="#ffffff"></path><g id="SvgjsG1011"><text id="SvgjsText1012" font-family="微软雅黑" text-anchor="middle" font-size="16px" width="0" fill="#323232" font-weight="400" align="middle" anchor="middle" family="微软雅黑" size="16px" weight="400" font-style="" y="7.6" transform="rotate(0)"></text></g></g><g id="SvgjsG1013" transform="translate(25,65)"><path id="SvgjsPath1014" d="M 0 0L 250 0L 250 500L 0 500Z" stroke="#323232" stroke-width="2" fill="none"></path><path id="SvgjsPath1015" d="M 0 0L 250 0L 250 30L 0 30Z" stroke="#323232" stroke-width="2" fill-opacity="1" fill="#ff8000"></path><g id="SvgjsG1016"><text id="SvgjsText1017" font-family="&quot;Lucida Console&quot;" text-anchor="middle" font-size="20px" width="65" fill="#323232" font-weight="400" align="middle" anchor="middle" family="&quot;Lucida Console&quot;" size="20px" weight="400" font-style="" y="-0.5" transform="rotate(0)"><tspan id="SvgjsTspan1018" dy="25" x="125"><tspan id="SvgjsTspan1019" style="text-decoration:;">Infa Job</tspan></tspan></text></g></g><g id="SvgjsG1020" transform="translate(275,25)"><path id="SvgjsPath1021" d="M 0 0L 250 0L 250 540L 0 540Z" stroke="#323232" stroke-width="2" fill="none"></path><path id="SvgjsPath1022" d="M 0 0L 250 0L 250 40L 0 40Z" stroke="#323232" stroke-width="2" fill-opacity="1" fill="#ffffff"></path><g id="SvgjsG1023"><text id="SvgjsText1024" font-family="微软雅黑" text-anchor="middle" font-size="16px" width="0" fill="#323232" font-weight="400" align="middle" anchor="middle" family="微软雅黑" size="16px" weight="400" font-style="" y="7.6" transform="rotate(0)"></text></g></g><g id="SvgjsG1025" transform="translate(275,66)"><path id="SvgjsPath1026" d="M 0 0L 250 0L 250 500L 0 500Z" stroke="#323232" stroke-width="2" fill="none"></path><path id="SvgjsPath1027" d="M 0 0L 250 0L 250 30L 0 30Z" stroke="#323232" stroke-width="2" fill-opacity="1" fill="#ff8000"></path><g id="SvgjsG1028"><text id="SvgjsText1029" font-family="&quot;Lucida Console&quot;" text-anchor="middle" font-size="20px" width="89" fill="#323232" font-weight="400" align="middle" anchor="middle" family="&quot;Lucida Console&quot;" size="20px" weight="400" font-style="" y="-0.5" transform="rotate(0)"><tspan id="SvgjsTspan1030" dy="25" x="125"><tspan id="SvgjsTspan1031" style="text-decoration:;">PCAM Job</tspan></tspan></text></g></g><g id="SvgjsG1032" transform="translate(525,25)"><path id="SvgjsPath1033" d="M 0 0L 250 0L 250 540L 0 540Z" stroke="#323232" stroke-width="2" fill="none"></path><path id="SvgjsPath1034" d="M 0 0L 250 0L 250 40L 0 40Z" stroke="#323232" stroke-width="2" fill-opacity="1" fill="#ffffff"></path><g id="SvgjsG1035"><text id="SvgjsText1036" font-family="微软雅黑" text-anchor="middle" font-size="16px" width="0" fill="#323232" font-weight="400" align="middle" anchor="middle" family="微软雅黑" size="16px" weight="400" font-style="" y="7.6" transform="rotate(0)"></text></g></g><g id="SvgjsG1037" transform="translate(525,66)"><path id="SvgjsPath1038" d="M 0 0L 250 0L 250 500L 0 500Z" stroke="#323232" stroke-width="2" fill="none"></path><path id="SvgjsPath1039" d="M 0 0L 250 0L 250 30L 0 30Z" stroke="#323232" stroke-width="2" fill-opacity="1" fill="#ff8000"></path><g id="SvgjsG1040"><text id="SvgjsText1041" font-family="微软雅黑" text-anchor="middle" font-size="20px" width="80" fill="#323232" font-weight="400" align="middle" anchor="middle" family="微软雅黑" size="20px" weight="400" font-style="" y="-0.5" transform="rotate(0)"><tspan id="SvgjsTspan1042" dy="25" x="125"><tspan id="SvgjsTspan1043" style="text-decoration:;">Scheduler</tspan></tspan></text></g></g><g id="SvgjsG1044" transform="translate(775,26)"><path id="SvgjsPath1045" d="M 0 0L 250 0L 250 540L 0 540Z" stroke="#323232" stroke-width="2" fill="none"></path><path id="SvgjsPath1046" d="M 0 0L 250 0L 250 40L 0 40Z" stroke="#323232" stroke-width="2" fill-opacity="1" fill="#ffffff"></path><g id="SvgjsG1047"><text id="SvgjsText1048" font-family="微软雅黑" text-anchor="middle" font-size="16px" width="0" fill="#323232" font-weight="400" align="middle" anchor="middle" family="微软雅黑" size="16px" weight="400" font-style="" y="7.6" transform="rotate(0)"></text></g></g><g id="SvgjsG1049" transform="translate(775,66)"><path id="SvgjsPath1050" d="M 0 0L 250 0L 250 500L 0 500Z" stroke="#323232" stroke-width="2" fill="none"></path><path id="SvgjsPath1051" d="M 0 0L 250 0L 250 30L 0 30Z" stroke="#323232" stroke-width="2" fill-opacity="1" fill="#ff8000"></path><g id="SvgjsG1052"><text id="SvgjsText1053" font-family="微软雅黑" text-anchor="middle" font-size="20px" width="98" fill="#323232" font-weight="400" align="middle" anchor="middle" family="微软雅黑" size="20px" weight="400" font-style="" y="-0.5" transform="rotate(0)"><tspan id="SvgjsTspan1054" dy="25" x="125"><tspan id="SvgjsTspan1055" style="text-decoration:;">Monitor Job</tspan></tspan></text></g></g><g id="SvgjsG1056" transform="translate(25,25)"><path id="SvgjsPath1057" d="M 0 0L 1000 0L 1000 41L 0 41Z" stroke="#323232" stroke-width="2" fill-opacity="1" fill="#ff0000"></path><g id="SvgjsG1058"><text id="SvgjsText1059" font-family="微软雅黑" text-anchor="middle" font-size="23px" width="175" fill="#323232" font-weight="700" align="middle" anchor="middle" family="微软雅黑" size="23px" weight="700" font-style="" y="2.5500000000000003" transform="rotate(0)"><tspan id="SvgjsTspan1060" dy="28" x="500"><tspan id="SvgjsTspan1061" style="text-decoration:;">EMC Job Process</tspan></tspan></text></g></g><g id="SvgjsG1062" transform="translate(639,239)"><path id="SvgjsPath1063" d="M 0 4Q 0 0 4 0L 96 0Q 100 0 100 4L 100 66Q 100 70 96 70L 4 70Q 0 70 0 66Z" stroke="#323232" stroke-width="2" fill-opacity="1" fill="#ffb366"></path><g id="SvgjsG1064"><text id="SvgjsText1065" font-family="&quot;Lucida Console&quot;" text-anchor="middle" font-size="13px" width="63" fill="#323232" font-weight="700" align="middle" anchor="middle" family="&quot;Lucida Console&quot;" size="13px" weight="700" font-style="" y="25.05" transform="rotate(0)"><tspan id="SvgjsTspan1066" dy="16" x="50"><tspan id="SvgjsTspan1067" style="text-decoration:;">autosys job</tspan></tspan></text></g></g><g id="SvgjsG1068" transform="translate(591,394.5)"><path id="SvgjsPath1069" d="M 0 0L 148 0L 148 69L 0 69Z" stroke="#323232" stroke-width="2" fill-opacity="1" fill="#ffb366"></path><g id="SvgjsG1070"><text id="SvgjsText1071" font-family="微软雅黑" text-anchor="middle" font-size="13px" width="127" fill="#323232" font-weight="700" align="middle" anchor="middle" family="微软雅黑" size="13px" weight="700" font-style="" y="24.55" transform="rotate(0)"><tspan id="SvgjsTspan1072" dy="16" x="74"><tspan id="SvgjsTspan1073" style="text-decoration:;">IMACTIONS (PCAM)</tspan></tspan></text></g></g><g id="SvgjsG1074" transform="translate(323,394)"><path id="SvgjsPath1075" d="M 0 0L 100 0L 100 70L 0 70Z" stroke="#323232" stroke-width="2" fill-opacity="1" fill="#990000"></path><g id="SvgjsG1076"><text id="SvgjsText1077" font-family="微软雅黑" text-anchor="middle" font-size="13px" width="76" fill="#ffe6cc" font-weight="400" align="middle" anchor="middle" family="微软雅黑" size="13px" weight="400" font-style="" y="17.05" transform="rotate(0)"><tspan id="SvgjsTspan1078" dy="16" x="50"><tspan id="SvgjsTspan1079" style="text-decoration:;">Daily business</tspan></tspan><tspan id="SvgjsTspan1080" dy="16" x="50"><tspan id="SvgjsTspan1081" style="text-decoration:;">jobs</tspan></tspan></text></g></g><g id="SvgjsG1082" transform="translate(109,239)"><path id="SvgjsPath1083" d="M 0 0L 100 0L 100 70L 0 70Z" stroke="#323232" stroke-width="2" fill-opacity="1" fill="#ff9999"></path><g id="SvgjsG1084"><text id="SvgjsText1085" font-family="微软雅黑" text-anchor="middle" font-size="13px" width="71" fill="#323232" font-weight="400" align="middle" anchor="middle" family="微软雅黑" size="13px" weight="400" font-style="" y="25.05" transform="rotate(0)"><tspan id="SvgjsTspan1086" dy="16" x="50"><tspan id="SvgjsTspan1087" style="text-decoration:;">Weblogic Job</tspan></tspan></text></g></g><g id="SvgjsG1088" transform="translate(109,326)"><path id="SvgjsPath1089" d="M 0 0L 100 0L 100 70L 0 70Z" stroke="#323232" stroke-width="2" fill-opacity="1" fill="#ff9999"></path><g id="SvgjsG1090"><text id="SvgjsText1091" font-family="微软雅黑" text-anchor="middle" font-size="13px" width="66" fill="#323232" font-weight="400" align="middle" anchor="middle" family="微软雅黑" size="13px" weight="400" font-style="" y="25.05" transform="rotate(0)"><tspan id="SvgjsTspan1092" dy="16" x="50"><tspan id="SvgjsTspan1093" style="text-decoration:;">TPCAM Job</tspan></tspan></text></g></g><g id="SvgjsG1094" transform="translate(894,137)"><path id="SvgjsPath1095" d="M 0 0L 100 0L 100 70L 0 70Z" stroke="#323232" stroke-width="2" fill-opacity="1" fill="#ff6666"></path><g id="SvgjsG1096"><text id="SvgjsText1097" font-family="微软雅黑" text-anchor="middle" font-size="13px" width="64" fill="#323232" font-weight="400" align="middle" anchor="middle" family="微软雅黑" size="13px" weight="400" font-style="" y="25.05" transform="rotate(0)"><tspan id="SvgjsTspan1098" dy="16" x="50"><tspan id="SvgjsTspan1099" style="text-decoration:;">Monitor Job</tspan></tspan></text></g></g><g id="SvgjsG1100"><path id="SvgjsPath1101" d="M639 274L610.5 274L610.5 274L582 274" stroke="#323232" stroke-width="2" fill="none" marker-end="url(#SvgjsMarker1102)"></path></g><g id="SvgjsG1104" transform="translate(462,242)"><path id="SvgjsPath1105" d="M 0 32L 60 0L 120 32L 60 64Z" stroke="#323232" stroke-width="2" fill-opacity="1" fill="#ffff00"></path><g id="SvgjsG1106"><text id="SvgjsText1107" font-family="微软雅黑" text-anchor="middle" font-size="13px" width="52" fill="#323232" font-weight="400" align="middle" anchor="middle" family="微软雅黑" size="13px" weight="400" font-style="" y="22.37" transform="rotate(0)"><tspan id="SvgjsTspan1108" dy="16" x="60"><tspan id="SvgjsTspan1109" style="text-decoration:;">Start/Stop</tspan></tspan></text></g></g><g id="SvgjsG1110"><path id="SvgjsPath1111" d="M462 274L335.5 274L335.5 274L209 274" stroke="#323232" stroke-width="2" fill="none" marker-end="url(#SvgjsMarker1112)"></path></g><g id="SvgjsG1114"><path id="SvgjsPath1115" d="M472.75 352.5L340.875 352.5L340.875 353L209 353" stroke="#323232" stroke-width="2" fill="none" marker-end="url(#SvgjsMarker1116)"></path></g><g id="SvgjsG1118" transform="translate(472.75,326)"><path id="SvgjsPath1119" d="M 0 26.5L 52.25 0L 104.5 26.5L 52.25 53Z" stroke="#323232" stroke-width="2" fill-opacity="1" fill="#ffff33"></path><g id="SvgjsG1120"><text id="SvgjsText1121" font-family="微软雅黑" text-anchor="middle" font-size="13px" width="40" fill="#323232" font-weight="400" align="middle" anchor="middle" family="微软雅黑" size="13px" weight="400" font-style="" y="16.815" transform="rotate(0)"><tspan id="SvgjsTspan1122" dy="16" x="52.5"><tspan id="SvgjsTspan1123" style="text-decoration:;">Refresh</tspan></tspan></text></g></g><g id="SvgjsG1124"><path id="SvgjsPath1125" d="M689 309L689 352.5L577.25 352.5" stroke="#323232" stroke-width="2" fill="none" marker-end="url(#SvgjsMarker1126)"></path></g><g id="SvgjsG1128"><path id="SvgjsPath1129" d="M739 274L834.2333333333333 274L834.2333333333333 401" stroke="#323232" stroke-width="2" fill="none" marker-end="url(#SvgjsMarker1130)"></path></g><g id="SvgjsG1132" transform="translate(789,401)"><path id="SvgjsPath1133" d="M 0 28L 46 0L 92 28L 46 56Z" stroke="#323232" stroke-width="2" fill-opacity="1" fill="#ffff00"></path><g id="SvgjsG1134"><text id="SvgjsText1135" font-family="微软雅黑" text-anchor="middle" font-size="13px" width="52" fill="#323232" font-weight="400" align="middle" anchor="middle" family="微软雅黑" size="13px" weight="400" font-style="" y="2.33" transform="rotate(0)"><tspan id="SvgjsTspan1136" dy="16" x="46"><tspan id="SvgjsTspan1137" style="text-decoration:;"> </tspan></tspan><tspan id="SvgjsTspan1138" dy="16" x="46"><tspan id="SvgjsTspan1139" style="text-decoration:;">Start/Stop</tspan></tspan><tspan id="SvgjsTspan1140" dy="16" x="46"><tspan id="SvgjsTspan1141" style="text-decoration:;"> </tspan></tspan></text></g></g><g id="SvgjsG1142"><path id="SvgjsPath1143" d="M789 429L764 429L764 429L739 429" stroke="#323232" stroke-width="2" fill="none" marker-end="url(#SvgjsMarker1144)"></path></g><g id="SvgjsG1146" transform="translate(480.5,398)"><path id="SvgjsPath1147" d="M 0 31L 41.5 0L 83 31L 41.5 62Z" stroke="#323232" stroke-width="2" fill-opacity="1" fill="#ffff00"></path><g id="SvgjsG1148"><text id="SvgjsText1149" font-family="微软雅黑" text-anchor="middle" font-size="13px" width="55" fill="#323232" font-weight="400" align="middle" anchor="middle" family="微软雅黑" size="13px" weight="400" font-style="" y="21.360000000000003" transform="rotate(0)"><tspan id="SvgjsTspan1150" dy="16" x="41.5"><tspan id="SvgjsTspan1151" style="text-decoration:;">Cycle Run</tspan></tspan></text></g></g><g id="SvgjsG1152"><path id="SvgjsPath1153" d="M591 429L577.25 429L577.25 429L563.5 429" stroke="#323232" stroke-width="2" fill="none" marker-end="url(#SvgjsMarker1154)"></path></g><g id="SvgjsG1156"><path id="SvgjsPath1157" d="M480.5 429L451.75 429L451.75 429L423 429" stroke="#323232" stroke-width="2" fill="none" marker-end="url(#SvgjsMarker1158)"></path></g><g id="SvgjsG1160"><path id="SvgjsPath1161" d="M689 239L689 172L739 172" stroke="#323232" stroke-width="2" fill="none" marker-end="url(#SvgjsMarker1162)"></path></g><g id="SvgjsG1164" transform="translate(739,140)"><path id="SvgjsPath1165" d="M 0 32L 37.5 0L 75 32L 37.5 64Z" stroke="#323232" stroke-width="2" fill-opacity="1" fill="#ffff00"></path><g id="SvgjsG1166"><text id="SvgjsText1167" font-family="微软雅黑" text-anchor="middle" font-size="13px" width="22" fill="#323232" font-weight="400" align="middle" anchor="middle" family="微软雅黑" size="13px" weight="400" font-style="" y="22.37" transform="rotate(0)"><tspan id="SvgjsTspan1168" dy="16" x="37.5"><tspan id="SvgjsTspan1169" style="text-decoration:;">start</tspan></tspan></text></g></g><g id="SvgjsG1170"><path id="SvgjsPath1171" d="M814 172L854 172L854 172L894 172" stroke="#323232" stroke-width="2" fill="none" marker-end="url(#SvgjsMarker1172)"></path></g><g id="SvgjsG1174" transform="translate(323,475)"><path id="SvgjsPath1175" d="M 0 0L 100 0L 100 70L 0 70Z" stroke="#323232" stroke-width="2" fill-opacity="1" fill="#990000"></path><g id="SvgjsG1176"><text id="SvgjsText1177" font-family="微软雅黑" text-anchor="middle" font-size="13px" width="77" fill="#ffe6cc" font-weight="400" align="middle" anchor="middle" family="微软雅黑" size="13px" weight="400" font-style="" y="25.05" transform="rotate(0)"><tspan id="SvgjsTspan1178" dy="16" x="50"><tspan id="SvgjsTspan1179" style="text-decoration:;">Customer Jobs</tspan></tspan></text></g></g><g id="SvgjsG1180"><path id="SvgjsPath1181" d="M665 463.5L665 511.6L566.5 511.6" stroke="#323232" stroke-width="2" fill="none" marker-end="url(#SvgjsMarker1182)"></path></g><g id="SvgjsG1184" transform="translate(477.5,478)"><path id="SvgjsPath1185" d="M 0 32L 44.5 0L 89 32L 44.5 64Z" stroke="#323232" stroke-width="2" fill-opacity="1" fill="#ffff00"></path><g id="SvgjsG1186"><text id="SvgjsText1187" font-family="微软雅黑" text-anchor="middle" font-size="13px" width="48" fill="#323232" font-weight="400" align="middle" anchor="middle" family="微软雅黑" size="13px" weight="400" font-style="" y="14.370000000000001" transform="rotate(0)"><tspan id="SvgjsTspan1188" dy="16" x="44.5"><tspan id="SvgjsTspan1189" style="text-decoration:;">Schedule</tspan></tspan><tspan id="SvgjsTspan1190" dy="16" x="44.5"><tspan id="SvgjsTspan1191" style="text-decoration:;">Run</tspan></tspan></text></g></g><g id="SvgjsG1192"><path id="SvgjsPath1193" d="M477.5 510L450.25 510L450.25 510L423 510" stroke="#323232" stroke-width="2" fill="none" marker-end="url(#SvgjsMarker1194)"></path></g><g id="SvgjsG1196" transform="translate(70,451)"><path id="SvgjsPath1197" d="M 19.5 0L 118 0C 133.27272727272728 0 133.27272727272728 72 118 72L 19.5 72C -6.5 72 -6.5 0 19.5 0ZM 118 0C 103 0 103 72 118 72C 103 72 103 0 118 0" stroke="#323232" stroke-width="2" fill-opacity="1" fill="#00ffff"></path><g id="SvgjsG1198"><text id="SvgjsText1199" font-family="微软雅黑" text-anchor="middle" font-size="13px" width="80" fill="#323232" font-weight="400" align="middle" anchor="middle" family="微软雅黑" size="13px" weight="400" font-style="" y="26.05" transform="rotate(0)"><tspan id="SvgjsTspan1200" dy="16" x="52"><tspan id="SvgjsTspan1201" style="text-decoration:;">Running Status</tspan></tspan></text></g></g><g id="SvgjsG1202"><path id="SvgjsPath1203" d="M323 429L261.5 429L261.5 487L200 487" stroke="#323232" stroke-width="2" fill="none" marker-end="url(#SvgjsMarker1204)"></path></g><g id="SvgjsG1206"><path id="SvgjsPath1207" d="M323 510L261.5 510L261.5 487L200 487" stroke="#323232" stroke-width="2" fill="none" marker-end="url(#SvgjsMarker1208)"></path></g><g id="SvgjsG1210"><path id="SvgjsPath1211" d="M135 523L135 553L944 553L944 207" stroke-dasharray="3,3" stroke="#323232" stroke-width="2" fill="none" marker-end="url(#SvgjsMarker1212)"></path></g><g id="SvgjsG1214" transform="translate(112,145)"><path id="SvgjsPath1215" d="M 0 0L 100 0L 100 70L 0 70Z" stroke="#323232" stroke-width="2" fill-opacity="1" fill="#ff9999"></path><g id="SvgjsG1216"><text id="SvgjsText1217" font-family="微软雅黑" text-anchor="middle" font-size="13px" width="70" fill="#323232" font-weight="400" align="middle" anchor="middle" family="微软雅黑" size="13px" weight="400" font-style="" y="25.05" transform="rotate(0)"><tspan id="SvgjsTspan1218" dy="16" x="50"><tspan id="SvgjsTspan1219" style="text-decoration:;">Publisher Job</tspan></tspan></text></g></g><g id="SvgjsG1220"><path id="SvgjsPath1221" d="M522 242L522 180L212 180" stroke="#323232" stroke-width="2" fill="none" marker-end="url(#SvgjsMarker1222)"></path></g><g id="SvgjsG1224"><path id="SvgjsPath1225" d="M162 145L162 107L944 107L944 137" stroke-dasharray="3,3" stroke="#323232" stroke-width="2" fill="none" marker-end="url(#SvgjsMarker1226)"></path></g></svg>