<svg id="SvgjsSvg1006" width="837" height="686" xmlns="http://www.w3.org/2000/svg" version="1.1" xmlns:xlink="http://www.w3.org/1999/xlink" xmlns:svgjs="http://svgjs.com/svgjs"><defs id="SvgjsDefs1007"><pattern id="SvgjsPattern1016" x="0" y="0" width="36" height="80" patternUnits="userSpaceOnUse"><image id="SvgjsImage1017" xlink:href="https://v3.processon.com/assets/images/designer/network/server.svg" width="36" height="80" preserveAspectRatio="none" crossOrigin="anonymous" x="0" y="0"></image></pattern><pattern id="SvgjsPattern1026" x="0" y="0" width="36" height="80" patternUnits="userSpaceOnUse"><image id="SvgjsImage1027" xlink:href="https://v3.processon.com/assets/images/designer/network/server.svg" width="36" height="80" preserveAspectRatio="none" crossOrigin="anonymous" x="0" y="0"></image></pattern><pattern id="SvgjsPattern1036" x="0" y="0" width="36" height="80" patternUnits="userSpaceOnUse"><image id="SvgjsImage1037" xlink:href="https://v3.processon.com/assets/images/designer/network/server.svg" width="36" height="80" preserveAspectRatio="none" crossOrigin="anonymous" x="0" y="0"></image></pattern><pattern id="SvgjsPattern1046" x="0" y="0" width="36" height="80" patternUnits="userSpaceOnUse"><image id="SvgjsImage1047" xlink:href="https://v3.processon.com/assets/images/designer/network/server.svg" width="36" height="80" preserveAspectRatio="none" crossOrigin="anonymous" x="0" y="0"></image></pattern><pattern id="SvgjsPattern1056" x="0" y="0" width="77" height="20" patternUnits="userSpaceOnUse"><image id="SvgjsImage1057" xlink:href="https://v3.processon.com/assets/images/designer/network/router.svg" width="77" height="20" preserveAspectRatio="none" crossOrigin="anonymous" x="0" y="0"></image></pattern><marker id="SvgjsMarker1062" markerWidth="16" markerHeight="12" refX="16" refY="6" viewBox="0 0 16 12" orient="auto" markerUnits="userSpaceOnUse"><path id="SvgjsPath1063" d="M0,2 L14,6 L0,11 L0,2" fill="#323232" stroke="#323232" stroke-width="2"></path></marker><marker id="SvgjsMarker1072" markerWidth="16" markerHeight="12" refX="16" refY="6" viewBox="0 0 16 12" orient="auto" markerUnits="userSpaceOnUse"><path id="SvgjsPath1073" d="M0,2 L14,6 L0,11 L0,2" fill="#323232" stroke="#323232" stroke-width="2"></path></marker><marker id="SvgjsMarker1082" markerWidth="16" markerHeight="12" refX="16" refY="6" viewBox="0 0 16 12" orient="auto" markerUnits="userSpaceOnUse"><path id="SvgjsPath1083" d="M0,2 L14,6 L0,11 L0,2" fill="#323232" stroke="#323232" stroke-width="2"></path></marker><marker id="SvgjsMarker1092" markerWidth="16" markerHeight="12" refX="16" refY="6" viewBox="0 0 16 12" orient="auto" markerUnits="userSpaceOnUse"><path id="SvgjsPath1093" d="M0,2 L14,6 L0,11 L0,2" fill="#323232" stroke="#323232" stroke-width="2"></path></marker><pattern id="SvgjsPattern1102" x="0" y="0" width="36" height="80" patternUnits="userSpaceOnUse"><image id="SvgjsImage1103" xlink:href="https://v3.processon.com/assets/images/designer/network/server.svg" width="36" height="80" preserveAspectRatio="none" crossOrigin="anonymous" x="0" y="0"></image></pattern><pattern id="SvgjsPattern1112" x="0" y="0" width="36" height="80" patternUnits="userSpaceOnUse"><image id="SvgjsImage1113" xlink:href="https://v3.processon.com/assets/images/designer/network/server.svg" width="36" height="80" preserveAspectRatio="none" crossOrigin="anonymous" x="0" y="0"></image></pattern><pattern id="SvgjsPattern1122" x="0" y="0" width="36" height="80" patternUnits="userSpaceOnUse"><image id="SvgjsImage1123" xlink:href="https://v3.processon.com/assets/images/designer/network/server.svg" width="36" height="80" preserveAspectRatio="none" crossOrigin="anonymous" x="0" y="0"></image></pattern><pattern id="SvgjsPattern1132" x="0" y="0" width="36" height="80" patternUnits="userSpaceOnUse"><image id="SvgjsImage1133" xlink:href="https://v3.processon.com/assets/images/designer/network/server.svg" width="36" height="80" preserveAspectRatio="none" crossOrigin="anonymous" x="0" y="0"></image></pattern><marker id="SvgjsMarker1142" markerWidth="16" markerHeight="12" refX="16" refY="6" viewBox="0 0 16 12" orient="auto" markerUnits="userSpaceOnUse"><path id="SvgjsPath1143" d="M0,2 L14,6 L0,11 L0,2" fill="#323232" stroke="#323232" stroke-width="2"></path></marker><marker id="SvgjsMarker1146" markerWidth="16" markerHeight="12" refX="16" refY="6" viewBox="0 0 16 12" orient="auto" markerUnits="userSpaceOnUse"><path id="SvgjsPath1147" d="M0,2 L14,6 L0,11 L0,2" fill="#323232" stroke="#323232" stroke-width="2"></path></marker><marker id="SvgjsMarker1150" markerWidth="16" markerHeight="12" refX="16" refY="6" viewBox="0 0 16 12" orient="auto" markerUnits="userSpaceOnUse"><path id="SvgjsPath1151" d="M0,2 L14,6 L0,11 L0,2" fill="#323232" stroke="#323232" stroke-width="2"></path></marker><marker id="SvgjsMarker1154" markerWidth="16" markerHeight="12" refX="16" refY="6" viewBox="0 0 16 12" orient="auto" markerUnits="userSpaceOnUse"><path id="SvgjsPath1155" d="M0,2 L14,6 L0,11 L0,2" fill="#323232" stroke="#323232" stroke-width="2"></path></marker><marker id="SvgjsMarker1174" markerWidth="16" markerHeight="12" refX="16" refY="6" viewBox="0 0 16 12" orient="auto" markerUnits="userSpaceOnUse"><path id="SvgjsPath1175" d="M0,2 L14,6 L0,11 L0,2" fill="#323232" stroke="#323232" stroke-width="2"></path></marker><marker id="SvgjsMarker1184" markerWidth="16" markerHeight="12" refX="16" refY="6" viewBox="0 0 16 12" orient="auto" markerUnits="userSpaceOnUse"><path id="SvgjsPath1185" d="M0,2 L14,6 L0,11 L0,2" fill="#323232" stroke="#323232" stroke-width="2"></path></marker><marker id="SvgjsMarker1194" markerWidth="16" markerHeight="12" refX="16" refY="6" viewBox="0 0 16 12" orient="auto" markerUnits="userSpaceOnUse"><path id="SvgjsPath1195" d="M0,2 L14,6 L0,11 L0,2" fill="#323232" stroke="#323232" stroke-width="2"></path></marker><marker id="SvgjsMarker1204" markerWidth="16" markerHeight="12" refX="16" refY="6" viewBox="0 0 16 12" orient="auto" markerUnits="userSpaceOnUse"><path id="SvgjsPath1205" d="M0,2 L14,6 L0,11 L0,2" fill="#323232" stroke="#323232" stroke-width="2"></path></marker></defs><g id="SvgjsG1008" transform="translate(389,25)"><path id="SvgjsPath1009" d="M 0 4Q 0 0 4 0L 419 0Q 423 0 423 4L 423 632Q 423 636 419 636L 4 636Q 0 636 0 632Z" stroke="#323232" stroke-width="2" fill-opacity="1" fill="#ffffff"></path><g id="SvgjsG1010"><text id="SvgjsText1011" font-family="微软雅黑" text-anchor="middle" font-size="13px" width="83" fill="#323232" font-weight="400" align="middle" anchor="middle" family="微软雅黑" size="13px" weight="400" font-style="" y="36.47857142857142" transform="rotate(0)"><tspan id="SvgjsTspan1012" dy="16" x="211.5"><tspan id="SvgjsTspan1013" style="text-decoration:;">Data warehouse</tspan></tspan></text></g></g><g id="SvgjsG1014" transform="translate(25,75)"><path id="SvgjsPath1015" d="M 0 0L 36 0L 36 80L 0 80Z" stroke="none" fill="url(#SvgjsPattern1016)"></path><g id="SvgjsG1018"><text id="SvgjsText1019" font-family="微软雅黑" text-anchor="middle" font-size="13px" width="48" fill="#323232" font-weight="400" align="middle" anchor="middle" family="微软雅黑" size="13px" weight="400" font-style="" y="77.05" transform="rotate(0)"><tspan id="SvgjsTspan1020" dy="16" x="18"><tspan id="SvgjsTspan1021" style="text-decoration:;">weblogic </tspan></tspan><tspan id="SvgjsTspan1022" dy="16" x="18"><tspan id="SvgjsTspan1023" style="text-decoration:;">server</tspan></tspan></text></g></g><g id="SvgjsG1024" transform="translate(25,202)"><path id="SvgjsPath1025" d="M 0 0L 36 0L 36 80L 0 80Z" stroke="none" fill="url(#SvgjsPattern1026)"></path><g id="SvgjsG1028"><text id="SvgjsText1029" font-family="微软雅黑" text-anchor="middle" font-size="13px" width="48" fill="#323232" font-weight="400" align="middle" anchor="middle" family="微软雅黑" size="13px" weight="400" font-style="" y="77.05" transform="rotate(0)"><tspan id="SvgjsTspan1030" dy="16" x="18"><tspan id="SvgjsTspan1031" style="text-decoration:;">weblogic </tspan></tspan><tspan id="SvgjsTspan1032" dy="16" x="18"><tspan id="SvgjsTspan1033" style="text-decoration:;">server</tspan></tspan></text></g></g><g id="SvgjsG1034" transform="translate(25,345)"><path id="SvgjsPath1035" d="M 0 0L 36 0L 36 80L 0 80Z" stroke="none" fill="url(#SvgjsPattern1036)"></path><g id="SvgjsG1038"><text id="SvgjsText1039" font-family="微软雅黑" text-anchor="middle" font-size="13px" width="48" fill="#323232" font-weight="400" align="middle" anchor="middle" family="微软雅黑" size="13px" weight="400" font-style="" y="77.05" transform="rotate(0)"><tspan id="SvgjsTspan1040" dy="16" x="18"><tspan id="SvgjsTspan1041" style="text-decoration:;">weblogic </tspan></tspan><tspan id="SvgjsTspan1042" dy="16" x="18"><tspan id="SvgjsTspan1043" style="text-decoration:;">server</tspan></tspan></text></g></g><g id="SvgjsG1044" transform="translate(25,481)"><path id="SvgjsPath1045" d="M 0 0L 36 0L 36 80L 0 80Z" stroke="none" fill="url(#SvgjsPattern1046)"></path><g id="SvgjsG1048"><text id="SvgjsText1049" font-family="微软雅黑" text-anchor="middle" font-size="13px" width="48" fill="#323232" font-weight="400" align="middle" anchor="middle" family="微软雅黑" size="13px" weight="400" font-style="" y="77.05" transform="rotate(0)"><tspan id="SvgjsTspan1050" dy="16" x="18"><tspan id="SvgjsTspan1051" style="text-decoration:;">weblogic </tspan></tspan><tspan id="SvgjsTspan1052" dy="16" x="18"><tspan id="SvgjsTspan1053" style="text-decoration:;">server</tspan></tspan></text></g></g><g id="SvgjsG1054" transform="translate(289.5,282)"><path id="SvgjsPath1055" d="M 0 0L 77 0L 77 20L 0 20Z" stroke="none" fill="url(#SvgjsPattern1056)"></path><g id="SvgjsG1058"><text id="SvgjsText1059" font-family="微软雅黑" text-anchor="middle" font-size="13px" width="0" fill="#323232" font-weight="400" align="middle" anchor="middle" family="微软雅黑" size="13px" weight="400" font-style="" y="25.05" transform="rotate(0)"></text></g></g><g id="SvgjsG1060"><path id="SvgjsPath1061" d="M61 115L132.5 115L132.5 292L204 292" stroke="#323232" stroke-width="2" fill="none" marker-end="url(#SvgjsMarker1062)"></path><rect id="SvgjsRect1064" width="55" height="32" x="64.67500000000001" y="120" fill="#ffffff"></rect><text id="SvgjsText1065" font-family="微软雅黑" text-anchor="middle" font-size="13px" width="55" fill="#323232" font-weight="400" align="top" anchor="middle" family="微软雅黑" size="13px" weight="400" font-style="" y="118.05" transform="rotate(0)"><tspan id="SvgjsTspan1066" dy="16" x="92.17500000000001"><tspan id="SvgjsTspan1067" style="text-decoration:;">filebeat </tspan></tspan><tspan id="SvgjsTspan1068" dy="16" x="92.17500000000001"><tspan id="SvgjsTspan1069" style="text-decoration:;">metricbeat</tspan></tspan></text></g><g id="SvgjsG1070"><path id="SvgjsPath1071" d="M61 242L132.5 242L132.5 292L204 292" stroke="#323232" stroke-width="2" fill="none" marker-end="url(#SvgjsMarker1072)"></path><rect id="SvgjsRect1074" width="55" height="32" x="68.25" y="247" fill="#ffffff"></rect><text id="SvgjsText1075" font-family="微软雅黑" text-anchor="middle" font-size="13px" width="55" fill="#323232" font-weight="400" align="top" anchor="middle" family="微软雅黑" size="13px" weight="400" font-style="" y="245.05" transform="rotate(0)"><tspan id="SvgjsTspan1076" dy="16" x="95.75"><tspan id="SvgjsTspan1077" style="text-decoration:;">filebeat </tspan></tspan><tspan id="SvgjsTspan1078" dy="16" x="95.75"><tspan id="SvgjsTspan1079" style="text-decoration:;">metricbeat</tspan></tspan></text></g><g id="SvgjsG1080"><path id="SvgjsPath1081" d="M61 385L132.5 385L132.5 292L204 292" stroke="#323232" stroke-width="2" fill="none" marker-end="url(#SvgjsMarker1082)"></path><rect id="SvgjsRect1084" width="55" height="32" x="68.25" y="390" fill="#ffffff"></rect><text id="SvgjsText1085" font-family="微软雅黑" text-anchor="middle" font-size="13px" width="55" fill="#323232" font-weight="400" align="top" anchor="middle" family="微软雅黑" size="13px" weight="400" font-style="" y="388.05" transform="rotate(0)"><tspan id="SvgjsTspan1086" dy="16" x="95.75"><tspan id="SvgjsTspan1087" style="text-decoration:;">filebeat </tspan></tspan><tspan id="SvgjsTspan1088" dy="16" x="95.75"><tspan id="SvgjsTspan1089" style="text-decoration:;">metricbeat</tspan></tspan></text></g><g id="SvgjsG1090"><path id="SvgjsPath1091" d="M61 521L132.5 521L132.5 292L204 292" stroke="#323232" stroke-width="2" fill="none" marker-end="url(#SvgjsMarker1092)"></path><rect id="SvgjsRect1094" width="55" height="32" x="64.67500000000001" y="526" fill="#ffffff"></rect><text id="SvgjsText1095" font-family="微软雅黑" text-anchor="middle" font-size="13px" width="55" fill="#323232" font-weight="400" align="top" anchor="middle" family="微软雅黑" size="13px" weight="400" font-style="" y="524.05" transform="rotate(0)"><tspan id="SvgjsTspan1096" dy="16" x="92.17500000000001"><tspan id="SvgjsTspan1097" style="text-decoration:;">filebeat </tspan></tspan><tspan id="SvgjsTspan1098" dy="16" x="92.17500000000001"><tspan id="SvgjsTspan1099" style="text-decoration:;">metricbeat</tspan></tspan></text></g><g id="SvgjsG1100" transform="translate(475,75)"><path id="SvgjsPath1101" d="M 0 0L 36 0L 36 80L 0 80Z" stroke="none" fill="url(#SvgjsPattern1102)"></path><g id="SvgjsG1104"><text id="SvgjsText1105" font-family="微软雅黑" text-anchor="middle" font-size="13px" width="60" fill="#323232" font-weight="400" align="middle" anchor="middle" family="微软雅黑" size="13px" weight="400" font-style="" y="77.05" transform="rotate(0)"><tspan id="SvgjsTspan1106" dy="16" x="18"><tspan id="SvgjsTspan1107" style="text-decoration:;">App Server</tspan></tspan><tspan id="SvgjsTspan1108" dy="16" x="18"><tspan id="SvgjsTspan1109" style="text-decoration:;">kafa node</tspan></tspan></text></g></g><g id="SvgjsG1110" transform="translate(475,232)"><path id="SvgjsPath1111" d="M 0 0L 36 0L 36 80L 0 80Z" stroke="none" fill="url(#SvgjsPattern1112)"></path><g id="SvgjsG1114"><text id="SvgjsText1115" font-family="微软雅黑" text-anchor="middle" font-size="13px" width="60" fill="#323232" font-weight="400" align="middle" anchor="middle" family="微软雅黑" size="13px" weight="400" font-style="" y="77.05" transform="rotate(0)"><tspan id="SvgjsTspan1116" dy="16" x="18"><tspan id="SvgjsTspan1117" style="text-decoration:;">App Server</tspan></tspan><tspan id="SvgjsTspan1118" dy="16" x="18"><tspan id="SvgjsTspan1119" style="text-decoration:;">kafa node</tspan></tspan></text></g></g><g id="SvgjsG1120" transform="translate(475,371)"><path id="SvgjsPath1121" d="M 0 0L 36 0L 36 80L 0 80Z" stroke="none" fill="url(#SvgjsPattern1122)"></path><g id="SvgjsG1124"><text id="SvgjsText1125" font-family="微软雅黑" text-anchor="middle" font-size="13px" width="60" fill="#323232" font-weight="400" align="middle" anchor="middle" family="微软雅黑" size="13px" weight="400" font-style="" y="77.05" transform="rotate(0)"><tspan id="SvgjsTspan1126" dy="16" x="18"><tspan id="SvgjsTspan1127" style="text-decoration:;">App Server</tspan></tspan><tspan id="SvgjsTspan1128" dy="16" x="18"><tspan id="SvgjsTspan1129" style="text-decoration:;">kafa node</tspan></tspan></text></g></g><g id="SvgjsG1130" transform="translate(475,524)"><path id="SvgjsPath1131" d="M 0 0L 36 0L 36 80L 0 80Z" stroke="none" fill="url(#SvgjsPattern1132)"></path><g id="SvgjsG1134"><text id="SvgjsText1135" font-family="微软雅黑" text-anchor="middle" font-size="13px" width="60" fill="#323232" font-weight="400" align="middle" anchor="middle" family="微软雅黑" size="13px" weight="400" font-style="" y="77.05" transform="rotate(0)"><tspan id="SvgjsTspan1136" dy="16" x="18"><tspan id="SvgjsTspan1137" style="text-decoration:;">App Server</tspan></tspan><tspan id="SvgjsTspan1138" dy="16" x="18"><tspan id="SvgjsTspan1139" style="text-decoration:;">kafa node</tspan></tspan></text></g></g><g id="SvgjsG1140"><path id="SvgjsPath1141" d="M366.5 292L420.75 292L420.75 104L475 104" stroke="#323232" stroke-width="2" fill="none" marker-end="url(#SvgjsMarker1142)"></path></g><g id="SvgjsG1144"><path id="SvgjsPath1145" d="M366.5 292L420.75 292L420.75 272L475 272" stroke="#323232" stroke-width="2" fill="none" marker-end="url(#SvgjsMarker1146)"></path></g><g id="SvgjsG1148"><path id="SvgjsPath1149" d="M366.5 292L420.75 292L420.75 411L475 411" stroke="#323232" stroke-width="2" fill="none" marker-end="url(#SvgjsMarker1150)"></path></g><g id="SvgjsG1152"><path id="SvgjsPath1153" d="M366.5 292L420.75 292L420.75 564L475 564" stroke="#323232" stroke-width="2" fill="none" marker-end="url(#SvgjsMarker1154)"></path></g><g id="SvgjsG1156" transform="translate(551,95)"><path id="SvgjsPath1157" d="M 0 19.8L 60 19.8L 60 0L 90 30L 60 60L 60 40.2L 0 40.2L 0 19.8Z" stroke="#323232" stroke-width="2" fill-opacity="1" fill="#ffffff"></path><g id="SvgjsG1158"><text id="SvgjsText1159" font-family="微软雅黑" text-anchor="middle" font-size="13px" width="0" fill="#323232" font-weight="400" align="middle" anchor="middle" family="微软雅黑" size="13px" weight="400" font-style="" y="20.05" transform="rotate(0)"></text></g></g><g id="SvgjsG1160" transform="translate(547,236)"><path id="SvgjsPath1161" d="M 0 19.8L 60 19.8L 60 0L 90 30L 60 60L 60 40.2L 0 40.2L 0 19.8Z" stroke="#323232" stroke-width="2" fill-opacity="1" fill="#ffffff"></path><g id="SvgjsG1162"><text id="SvgjsText1163" font-family="微软雅黑" text-anchor="middle" font-size="13px" width="0" fill="#323232" font-weight="400" align="middle" anchor="middle" family="微软雅黑" size="13px" weight="400" font-style="" y="20.05" transform="rotate(0)"></text></g></g><g id="SvgjsG1164" transform="translate(551,381)"><path id="SvgjsPath1165" d="M 0 19.8L 60 19.8L 60 0L 90 30L 60 60L 60 40.2L 0 40.2L 0 19.8Z" stroke="#323232" stroke-width="2" fill-opacity="1" fill="#ffffff"></path><g id="SvgjsG1166"><text id="SvgjsText1167" font-family="微软雅黑" text-anchor="middle" font-size="13px" width="0" fill="#323232" font-weight="400" align="middle" anchor="middle" family="微软雅黑" size="13px" weight="400" font-style="" y="20.05" transform="rotate(0)"></text></g></g><g id="SvgjsG1168" transform="translate(547,521)"><path id="SvgjsPath1169" d="M 0 19.8L 60 19.8L 60 0L 90 30L 60 60L 60 40.2L 0 40.2L 0 19.8Z" stroke="#323232" stroke-width="2" fill-opacity="1" fill="#ffffff"></path><g id="SvgjsG1170"><text id="SvgjsText1171" font-family="微软雅黑" text-anchor="middle" font-size="13px" width="0" fill="#323232" font-weight="400" align="middle" anchor="middle" family="微软雅黑" size="13px" weight="400" font-style="" y="20.05" transform="rotate(0)"></text></g></g><g id="SvgjsG1172"><path id="SvgjsPath1173" d="M204 292L174 292L259.5 292L289.5 292" stroke="#323232" stroke-width="2" fill="none" marker-end="url(#SvgjsMarker1174)"></path><rect id="SvgjsRect1176" width="55" height="32" x="162" y="297" fill="#ffffff"></rect><text id="SvgjsText1177" font-family="微软雅黑" text-anchor="middle" font-size="13px" width="55" fill="#323232" font-weight="400" align="top" anchor="middle" family="微软雅黑" size="13px" weight="400" font-style="" y="295.05" transform="rotate(0)"><tspan id="SvgjsTspan1178" dy="16" x="189.5"><tspan id="SvgjsTspan1179" style="text-decoration:;">filebeat </tspan></tspan><tspan id="SvgjsTspan1180" dy="16" x="189.5"><tspan id="SvgjsTspan1181" style="text-decoration:;">metricbeat</tspan></tspan></text></g><g id="SvgjsG1182"><path id="SvgjsPath1183" d="M204 292L174 292L259.5 292L289.5 292" stroke="#323232" stroke-width="2" fill="none" marker-end="url(#SvgjsMarker1184)"></path><rect id="SvgjsRect1186" width="55" height="32" x="160.5" y="297" fill="#ffffff"></rect><text id="SvgjsText1187" font-family="微软雅黑" text-anchor="middle" font-size="13px" width="55" fill="#323232" font-weight="400" align="top" anchor="middle" family="微软雅黑" size="13px" weight="400" font-style="" y="295.05" transform="rotate(0)"><tspan id="SvgjsTspan1188" dy="16" x="188"><tspan id="SvgjsTspan1189" style="text-decoration:;">filebeat </tspan></tspan><tspan id="SvgjsTspan1190" dy="16" x="188"><tspan id="SvgjsTspan1191" style="text-decoration:;">metricbeat</tspan></tspan></text></g><g id="SvgjsG1192"><path id="SvgjsPath1193" d="M204 292L174 292L259.5 292L289.5 292" stroke="#323232" stroke-width="2" fill="none" marker-end="url(#SvgjsMarker1194)"></path><rect id="SvgjsRect1196" width="55" height="32" x="160.5" y="297" fill="#ffffff"></rect><text id="SvgjsText1197" font-family="微软雅黑" text-anchor="middle" font-size="13px" width="55" fill="#323232" font-weight="400" align="top" anchor="middle" family="微软雅黑" size="13px" weight="400" font-style="" y="295.05" transform="rotate(0)"><tspan id="SvgjsTspan1198" dy="16" x="188"><tspan id="SvgjsTspan1199" style="text-decoration:;">filebeat </tspan></tspan><tspan id="SvgjsTspan1200" dy="16" x="188"><tspan id="SvgjsTspan1201" style="text-decoration:;">metricbeat</tspan></tspan></text></g><g id="SvgjsG1202"><path id="SvgjsPath1203" d="M204 292L174 292L259.5 292L289.5 292" stroke="#323232" stroke-width="2" fill="none" marker-end="url(#SvgjsMarker1204)"></path><rect id="SvgjsRect1206" width="55" height="32" x="162" y="297" fill="#ffffff"></rect><text id="SvgjsText1207" font-family="微软雅黑" text-anchor="middle" font-size="13px" width="55" fill="#323232" font-weight="400" align="top" anchor="middle" family="微软雅黑" size="13px" weight="400" font-style="" y="295.05" transform="rotate(0)"><tspan id="SvgjsTspan1208" dy="16" x="189.5"><tspan id="SvgjsTspan1209" style="text-decoration:;">filebeat </tspan></tspan><tspan id="SvgjsTspan1210" dy="16" x="189.5"><tspan id="SvgjsTspan1211" style="text-decoration:;">metricbeat</tspan></tspan></text></g><g id="SvgjsG1212" transform="translate(653,90)"><path id="SvgjsPath1213" d="M 0 0L 100 0L 100 70L 0 70Z" stroke="#323232" stroke-width="2" fill-opacity="1" fill="#ffffff"></path><g id="SvgjsG1214"><text id="SvgjsText1215" font-family="微软雅黑" text-anchor="middle" font-size="13px" width="64" fill="#323232" font-weight="400" align="middle" anchor="middle" family="微软雅黑" size="13px" weight="400" font-style="" y="9.05" transform="rotate(0)"><tspan id="SvgjsTspan1216" dy="16" x="50"><tspan id="SvgjsTspan1217" style="text-decoration:;">OS /Server</tspan></tspan><tspan id="SvgjsTspan1218" dy="16" x="50"><tspan id="SvgjsTspan1219" style="text-decoration:;">running</tspan></tspan><tspan id="SvgjsTspan1220" dy="16" x="50"><tspan id="SvgjsTspan1221" style="text-decoration:;">Metric topic</tspan></tspan></text></g></g><g id="SvgjsG1222" transform="translate(653,226)"><path id="SvgjsPath1223" d="M 0 0L 100 0L 100 70L 0 70Z" stroke="#323232" stroke-width="2" fill-opacity="1" fill="#ffffff"></path><g id="SvgjsG1224"><text id="SvgjsText1225" font-family="微软雅黑" text-anchor="middle" font-size="13px" width="64" fill="#323232" font-weight="400" align="middle" anchor="middle" family="微软雅黑" size="13px" weight="400" font-style="" y="9.05" transform="rotate(0)"><tspan id="SvgjsTspan1226" dy="16" x="50"><tspan id="SvgjsTspan1227" style="text-decoration:;">Log Messge</tspan></tspan><tspan id="SvgjsTspan1228" dy="16" x="50"><tspan id="SvgjsTspan1229" style="text-decoration:;">collection </tspan></tspan><tspan id="SvgjsTspan1230" dy="16" x="50"><tspan id="SvgjsTspan1231" style="text-decoration:;">topic</tspan></tspan></text></g></g><g id="SvgjsG1232" transform="translate(653,371)"><path id="SvgjsPath1233" d="M 0 0L 100 0L 100 70L 0 70Z" stroke="#323232" stroke-width="2" fill-opacity="1" fill="#ffffff"></path><g id="SvgjsG1234"><text id="SvgjsText1235" font-family="微软雅黑" text-anchor="middle" font-size="13px" width="60" fill="#323232" font-weight="400" align="middle" anchor="middle" family="微软雅黑" size="13px" weight="400" font-style="" y="9.05" transform="rotate(0)"><tspan id="SvgjsTspan1236" dy="16" x="50"><tspan id="SvgjsTspan1237" style="text-decoration:;">Queue </tspan></tspan><tspan id="SvgjsTspan1238" dy="16" x="50"><tspan id="SvgjsTspan1239" style="text-decoration:;">Consuming </tspan></tspan><tspan id="SvgjsTspan1240" dy="16" x="50"><tspan id="SvgjsTspan1241" style="text-decoration:;">Ratio topic</tspan></tspan></text></g></g><g id="SvgjsG1242" transform="translate(653,511)"><path id="SvgjsPath1243" d="M 0 0L 100 0L 100 70L 0 70Z" stroke="#323232" stroke-width="2" fill-opacity="1" fill="#ffffff"></path><g id="SvgjsG1244"><text id="SvgjsText1245" font-family="微软雅黑" text-anchor="middle" font-size="13px" width="66" fill="#323232" font-weight="400" align="middle" anchor="middle" family="微软雅黑" size="13px" weight="400" font-style="" y="9.05" transform="rotate(0)"><tspan id="SvgjsTspan1246" dy="16" x="50"><tspan id="SvgjsTspan1247" style="text-decoration:;">Component</tspan></tspan><tspan id="SvgjsTspan1248" dy="16" x="50"><tspan id="SvgjsTspan1249" style="text-decoration:;">Performance</tspan></tspan><tspan id="SvgjsTspan1250" dy="16" x="50"><tspan id="SvgjsTspan1251" style="text-decoration:;">Ratio topic</tspan></tspan></text></g></g></svg>